<svg width="111" height="35" viewBox="0 0 111 35" fill="none" xmlns="http://www.w3.org/2000/svg">
<g filter="url(#filter0_d_499_2)">
<path d="M15.1355 16.501H16.0815C16.2355 15.6503 16.6352 14.95 17.2805 14.4C17.9845 13.7987 18.8572 13.498 19.8985 13.498C21.0792 13.498 22.0435 13.8573 22.7915 14.576C23.1582 14.9207 23.4442 15.335 23.6495 15.819C23.8622 16.2957 23.9685 16.798 23.9685 17.326C23.9685 17.8467 23.8622 18.349 23.6495 18.833C23.4442 19.317 23.1582 19.735 22.7915 20.087C22.0435 20.8057 21.0792 21.165 19.8985 21.165C18.8425 21.165 17.9625 20.8497 17.2585 20.219C16.5839 19.6103 16.1915 18.8623 16.0815 17.975H15.1355V21H13.2325V13.663H15.1355V16.501ZM19.9645 15.346C19.3925 15.346 18.9049 15.5477 18.5015 15.951C18.1129 16.3397 17.9185 16.8017 17.9185 17.337C17.9185 17.8943 18.1202 18.3637 18.5235 18.745C18.9122 19.1263 19.3889 19.317 19.9535 19.317C20.4962 19.317 20.9692 19.1227 21.3725 18.734C21.7759 18.3307 21.9775 17.854 21.9775 17.304C21.9775 16.7687 21.7759 16.3067 21.3725 15.918C20.9839 15.5367 20.5145 15.346 19.9645 15.346ZM25.8928 13.663H31.5468V21H29.6328V15.269H27.7848V17.942C27.7848 19.1153 27.5282 19.9587 27.0148 20.472C26.5822 20.89 26.0102 21.099 25.2988 21.099C25.0055 21.099 24.7158 21.066 24.4298 21V19.24C24.5838 19.2913 24.7305 19.317 24.8698 19.317C25.1338 19.317 25.3465 19.2437 25.5078 19.097C25.7645 18.8623 25.8928 18.4003 25.8928 17.711V13.663ZM33.0841 13.663H34.9981V18.283L37.7481 13.663H39.6951V21H37.7811V16.38L35.0311 21H33.0841V13.663ZM40.6214 21L42.6674 18.239C42.2421 18.1657 41.8791 17.975 41.5784 17.667C41.1971 17.2783 41.0064 16.765 41.0064 16.127C41.0064 15.401 41.2081 14.8253 41.6114 14.4C42.0734 13.9087 42.7591 13.663 43.6684 13.663H46.4954V21H44.5814V18.503H44.3944L42.8214 21H40.6214ZM44.5814 17.029V15.269H44.0424C43.6757 15.269 43.4007 15.3533 43.2174 15.522C43.0487 15.676 42.9644 15.885 42.9644 16.149C42.9644 16.413 43.0414 16.622 43.1954 16.776C43.3714 16.9447 43.6537 17.029 44.0424 17.029H44.5814ZM53.6626 21H50.6046V13.663H53.4426C54.1686 13.663 54.7039 13.8537 55.0486 14.235C55.3493 14.565 55.4996 15.0233 55.4996 15.61C55.4996 15.9327 55.4299 16.2333 55.2906 16.512C55.1439 16.7833 54.9459 16.974 54.6966 17.084C55.1073 17.128 55.4409 17.2747 55.6976 17.524C56.0276 17.8393 56.1926 18.2867 56.1926 18.866C56.1926 19.4673 56.0129 19.9477 55.6536 20.307C55.2063 20.769 54.5426 21 53.6626 21ZM52.5076 15.126V16.556H52.8596C53.1969 16.556 53.4389 16.479 53.5856 16.325C53.7029 16.2077 53.7616 16.0463 53.7616 15.841C53.7616 15.643 53.7029 15.478 53.5856 15.346C53.4389 15.1993 53.1969 15.126 52.8596 15.126H52.5076ZM52.5076 17.975V19.515H52.9366C53.5526 19.515 53.9449 19.416 54.1136 19.218C54.2163 19.1007 54.2676 18.943 54.2676 18.745C54.2676 18.5177 54.2053 18.3417 54.0806 18.217C53.9193 18.0557 53.5269 17.975 52.9036 17.975H52.5076ZM65.1704 17.337C65.1704 18.4223 64.7854 19.3353 64.0154 20.076C63.2527 20.802 62.2884 21.165 61.1224 21.165C59.9564 21.165 58.9921 20.802 58.2294 20.076C57.4594 19.3353 57.0744 18.4223 57.0744 17.337C57.0744 16.831 57.1697 16.336 57.3604 15.852C57.5584 15.368 57.8481 14.9463 58.2294 14.587C58.9921 13.861 59.9564 13.498 61.1224 13.498C62.2884 13.498 63.2527 13.861 64.0154 14.587C64.3967 14.9463 64.6827 15.368 64.8734 15.852C65.0714 16.336 65.1704 16.831 65.1704 17.337ZM61.1224 15.346C60.5211 15.346 60.0261 15.5403 59.6374 15.929C59.2487 16.3103 59.0544 16.7907 59.0544 17.37C59.0544 17.9053 59.2487 18.36 59.6374 18.734C60.0407 19.1227 60.5357 19.317 61.1224 19.317C61.7237 19.317 62.2151 19.1263 62.5964 18.745C62.9924 18.349 63.1904 17.8797 63.1904 17.337C63.1904 16.7797 62.9924 16.3103 62.5964 15.929C62.1857 15.5403 61.6944 15.346 61.1224 15.346ZM69.4869 18.569H68.2879V21H66.3849V13.663H69.4209C70.2055 13.663 70.8252 13.883 71.2799 14.323C71.7345 14.763 71.9619 15.357 71.9619 16.105C71.9619 16.897 71.7455 17.5057 71.3129 17.931C70.8802 18.3563 70.2715 18.569 69.4869 18.569ZM68.2879 15.203V17.029H68.9259C69.2925 17.029 69.5602 16.952 69.7289 16.798C69.8902 16.6587 69.9709 16.435 69.9709 16.127C69.9709 15.8337 69.8975 15.6137 69.7509 15.467C69.5822 15.291 69.3109 15.203 68.9369 15.203H68.2879ZM74.2525 21H72.3605L73.6035 13.663H75.4845L76.9695 17.579L78.5425 13.663H80.4455L81.5455 21H79.6425L79.1035 16.776L77.3325 21H76.5735L74.8795 16.776L74.2525 21ZM87.684 21L87.233 19.768H84.571L84.076 21H82.063L84.879 13.663H86.958L89.719 21H87.684ZM85.099 18.316H86.727L85.902 15.94L85.099 18.316ZM92.4685 13.663V16.402H95.2185V13.663H97.1325V21H95.2185V18.03H92.4685V21H90.5655V13.663H92.4685Z" fill="white"/>
</g>
<defs>
<filter id="filter0_d_499_2" x="0.232533" y="0.498047" width="109.9" height="33.667" filterUnits="userSpaceOnUse" color-interpolation-filters="sRGB">
<feFlood flood-opacity="0" result="BackgroundImageFix"/>
<feColorMatrix in="SourceAlpha" type="matrix" values="0 0 0 0 0 0 0 0 0 0 0 0 0 0 0 0 0 0 127 0" result="hardAlpha"/>
<feMorphology radius="3" operator="dilate" in="SourceAlpha" result="effect1_dropShadow_499_2"/>
<feOffset/>
<feGaussianBlur stdDeviation="5"/>
<feColorMatrix type="matrix" values="0 0 0 0 0.639216 0 0 0 0 0.529412 0 0 0 0 0.768627 0 0 0 1 0"/>
<feBlend mode="normal" in2="BackgroundImageFix" result="effect1_dropShadow_499_2"/>
<feBlend mode="normal" in="SourceGraphic" in2="effect1_dropShadow_499_2" result="shape"/>
</filter>
</defs>
</svg>
