<svg width="155" height="21" viewBox="0 0 155 21" fill="none" xmlns="http://www.w3.org/2000/svg">
<rect y="20.6069" width="13.4393" height="3.58381" transform="rotate(-90 0 20.6069)" fill="#0D4CD3"/>
<rect x="7.16797" y="20.6069" width="7.16763" height="3.58382" transform="rotate(-90 7.16797 20.6069)" fill="#0D4CD3"/>
<rect x="14.335" y="20.6069" width="20.6069" height="3.58381" transform="rotate(-90 14.335 20.6069)" fill="#0D4CD3"/>
<path d="M69.021 11.4575C69.021 11.7624 69.0043 12.1392 68.9708 12.5877C68.9541 13.0362 68.9289 13.4937 68.8954 13.9601C68.8787 14.4266 68.8536 14.8392 68.8201 15.198C68.7866 15.5568 68.7615 15.8079 68.7448 15.9515L75.074 5.64484H79.5698V20.3378H75.9531V14.4714C75.9531 13.987 75.9698 13.4578 76.0033 12.8837C76.0368 12.2917 76.0703 11.7445 76.1038 11.2422C76.154 10.7219 76.1875 10.3272 76.2043 10.0581L69.9001 20.3378H65.4043V5.64484H69.021V11.4575Z" fill="#EE3F58"/>
<path d="M87.2234 5.64484V11.296H92.4476V5.64484H96.1899V20.3378H92.4476V14.283H87.2234V20.3378H83.4811V5.64484H87.2234Z" fill="#EE3F58"/>
<path d="M112.267 9.493C112.267 10.2824 112.033 10.9551 111.564 11.5113C111.112 12.0674 110.434 12.4262 109.529 12.5877V12.6953C110.484 12.8209 111.246 13.1707 111.815 13.7448C112.401 14.3189 112.694 15.0545 112.694 15.9515C112.694 16.7947 112.485 17.5481 112.066 18.2119C111.664 18.8757 111.02 19.396 110.132 19.7727C109.245 20.1495 108.081 20.3378 106.641 20.3378H100.111V5.64484H106.641C107.713 5.64484 108.667 5.77042 109.504 6.02158C110.358 6.2548 111.028 6.64949 111.514 7.20563C112.016 7.76178 112.267 8.52424 112.267 9.493ZM108.474 9.81593C108.474 8.91892 107.813 8.47041 106.49 8.47041H103.853V11.3767H106.063C106.85 11.3767 107.445 11.2601 107.847 11.0269C108.265 10.7757 108.474 10.3721 108.474 9.81593ZM108.826 15.7362C108.826 15.1621 108.617 14.7495 108.198 14.4983C107.78 14.2292 107.152 14.0947 106.314 14.0947H103.853V17.5661H106.39C107.093 17.5661 107.671 17.4315 108.123 17.1624C108.592 16.8754 108.826 16.4 108.826 15.7362Z" fill="#EE3F58"/>
<path d="M121.558 5.37573C123.45 5.37573 124.948 5.95879 126.053 7.1249C127.159 8.27307 127.711 9.9146 127.711 12.0495V13.987H118.87C118.904 15.1173 119.213 16.0053 119.8 16.6511C120.402 17.297 121.231 17.6199 122.286 17.6199C123.173 17.6199 123.977 17.5302 124.697 17.3508C125.417 17.1535 126.162 16.8574 126.933 16.4628V19.5574C126.263 19.9162 125.551 20.1764 124.798 20.3378C124.061 20.5172 123.165 20.6069 122.11 20.6069C120.737 20.6069 119.523 20.3378 118.468 19.7996C117.413 19.2435 116.585 18.4093 115.982 17.297C115.379 16.1847 115.078 14.7854 115.078 13.099C115.078 11.3767 115.346 9.95048 115.881 8.82025C116.434 7.67208 117.196 6.81095 118.167 6.23686C119.138 5.66278 120.268 5.37573 121.558 5.37573ZM121.583 8.22822C120.863 8.22822 120.26 8.47938 119.774 8.98171C119.306 9.48403 119.029 10.2644 118.946 11.3229H124.195C124.178 10.4259 123.96 9.69035 123.542 9.11626C123.123 8.52424 122.47 8.22822 121.583 8.22822Z" fill="#EE3F58"/>
<path d="M136.321 20.6069C134.279 20.6069 132.696 20.0059 131.575 18.804C130.469 17.584 129.917 15.6734 129.917 13.0721C129.917 11.2781 130.201 9.81593 130.771 8.6857C131.34 7.55546 132.127 6.72125 133.132 6.18304C134.153 5.64484 135.325 5.37573 136.648 5.37573C137.586 5.37573 138.398 5.4744 139.084 5.67175C139.787 5.86909 140.399 6.10231 140.918 6.37141L139.813 9.46609C139.227 9.21493 138.674 9.00862 138.155 8.84716C137.653 8.6857 137.15 8.60497 136.648 8.60497C134.706 8.60497 133.734 10.085 133.734 13.0452C133.734 14.5163 133.986 15.6016 134.488 16.3013C135.007 17.001 135.727 17.3508 136.648 17.3508C137.435 17.3508 138.13 17.2432 138.733 17.0279C139.335 16.7947 139.921 16.4807 140.491 16.086V19.5036C139.921 19.8983 139.319 20.1764 138.682 20.3378C138.063 20.5172 137.276 20.6069 136.321 20.6069Z" fill="#EE3F58"/>
<path d="M155 8.65879H150.504V20.3378H146.762V8.65879H142.266V5.64484H155V8.65879Z" fill="#EE3F58"/>
<path d="M33.6994 5.64484V8.65879H27.9486V20.3378H24.1904V5.64484H33.6994Z" fill="#0D4CD3"/>
<path d="M48.4994 12.9644C48.4994 15.4043 47.894 17.288 46.6833 18.6156C45.4895 19.9432 43.8584 20.6069 41.7901 20.6069C40.5122 20.6069 39.3688 20.3109 38.3599 19.7189C37.3678 19.1269 36.5859 18.2658 36.0141 17.1355C35.4424 15.9873 35.1566 14.597 35.1566 12.9644C35.1566 10.5246 35.7535 8.64982 36.9474 7.34018C38.1413 6.03055 39.7807 5.37573 41.8658 5.37573C43.1606 5.37573 44.304 5.67175 45.2961 6.26377C46.2882 6.8558 47.0701 7.71693 47.6418 8.84716C48.2135 9.95945 48.4994 11.3319 48.4994 12.9644ZM38.9904 12.9644C38.9904 14.4176 39.209 15.5209 39.6462 16.2744C40.1002 17.0099 40.8317 17.3777 41.8406 17.3777C42.8327 17.3777 43.5473 17.0099 43.9845 16.2744C44.4385 15.5209 44.6655 14.4176 44.6655 12.9644C44.6655 11.5113 44.4385 10.4259 43.9845 9.70829C43.5473 8.97274 42.8243 8.60497 41.8154 8.60497C40.8233 8.60497 40.1002 8.97274 39.6462 9.70829C39.209 10.4259 38.9904 11.5113 38.9904 12.9644Z" fill="#0D4CD3"/>
<path d="M57.2047 20.6069C55.1533 20.6069 53.5643 20.0059 52.4377 18.804C51.3279 17.584 50.773 15.6734 50.773 13.0721C50.773 11.2781 51.0588 9.81593 51.6305 8.6857C52.2022 7.55546 52.9926 6.72125 54.0015 6.18304C55.0272 5.64484 56.2042 5.37573 57.5326 5.37573C58.4743 5.37573 59.2898 5.4744 59.9792 5.67175C60.6855 5.86909 61.2992 6.10231 61.8205 6.37141L60.7107 9.46609C60.1222 9.21493 59.5673 9.00862 59.046 8.84716C58.5415 8.6857 58.0371 8.60497 57.5326 8.60497C55.5821 8.60497 54.6068 10.085 54.6068 13.0452C54.6068 14.5163 54.859 15.6016 55.3635 16.3013C55.8848 17.001 56.6078 17.3508 57.5326 17.3508C58.3229 17.3508 59.0208 17.2432 59.6261 17.0279C60.2315 16.7947 60.82 16.4807 61.3917 16.086V19.5036C60.82 19.8983 60.2146 20.1764 59.5757 20.3378C58.9535 20.5172 58.1632 20.6069 57.2047 20.6069Z" fill="#0D4CD3"/>
</svg>
